<svg width="1920" height="1080" viewBox="0 0 1440 810" xmlns="http://www.w3.org/2000/svg" xmlns:xlink="http://www.w3.org/1999/xlink" overflow="hidden"><defs><clipPath id="9cbde82888"><path d="M881 265.711 1008 265.711 1008 514 881 514Z"/></clipPath><clipPath id="173cf47954"><path d="M812 505 887 505 887 543.961 812 543.961Z"/></clipPath></defs><g clip-path="url(#9cbde82888)"><path d="M916.84 475.934C927.391 461.609 937.93 447.285 948.488 432.984L953.035 431.883C948.914 421.816 942.305 412.777 933.953 405.797 942.98 408.305 951.34 413.133 958.031 419.676 965.293 414.621 971.43 407.961 975.875 400.32 968.371 394.883 959.621 391.176 950.48 389.562 960.16 388.707 970.09 390.82 978.59 395.547 984.512 386.152 990.434 376.773 996.344 367.379 986.059 360.996 973.125 359.004 961.398 362.023 970.883 354.793 983.812 352.277 995.152 355.07 998.508 343.25 1001.88 331.43 1005.23 319.613 1006.43 315.438 1007.61 311.227 1007.77 306.891 1007.91 302.645 1007.04 298.434 1006.18 294.281 1004.36 285.438 1002.53 276.605 1000.71 267.762 1000.56 267.039 1000.33 266.203 999.645 265.93 999.012 265.668 998.293 266.012 997.695 266.344 981.43 275.586 968.109 289.91 960.285 306.625 963.586 308.652 966.883 310.676 970.184 312.703 963.551 315.148 956.414 306.387 949.898 309.156 947.551 310.148 946.047 312.426 944.695 314.59 937.242 326.477 930.07 338.547 923.199 350.789 929.887 353.879 936.062 358.078 941.387 363.168 934.41 360.859 927.426 358.559 920.449 356.246 913.039 370.41 904.688 384.094 895.488 397.184 903.555 399.484 911.32 402.777 918.582 406.965 910.152 405.879 901.711 404.793 893.277 403.703 891.574 417.172 887.77 430.375 882.043 442.695 888.801 442.742 895.559 442.801 902.328 442.844 895.297 444.457 888.273 446.059 881.242 447.672 886.121 469.078 887.668 491.23 885.812 513.105 891.32 507.762 897.172 502.672 916.84 475.957Z" fill="#417E65"/></g><path d="M934.961 407.012C936.027 390.055 945.34 374.77 955.59 361.211 965.84 347.656 977.434 334.805 984.375 319.293 990.516 305.574 992.68 290.484 996.332 275.906 982.621 289.672 979.883 310.723 970.332 327.633 962.602 341.316 950.469 352.117 942.809 365.836 935.223 379.426 932.418 395.605 934.961 407.012Z" fill="#529C7E"/><path d="M924.801 277.508C924.871 277.793 924.926 278.082 925.074 278.32 933.367 294.809 938.066 312.758 938.809 330.848 930.047 333.02 921.273 335.207 912.512 337.379 920.988 338.559 929.473 339.738 937.949 340.914 939.668 341.156 941.488 341.43 942.809 342.461 944.434 343.73 944.879 345.801 945.199 347.723 949.633 374.141 948.477 401.312 941.57 427.297 933.562 430.914 924.594 432.812 915.625 432.801 924.227 435.008 933.164 436.164 942.109 436.223 946.977 458.793 935.328 481.312 924.902 504.504 772.414 511.207 619.488 509.73 467.207 500.098 462.371 499.789 457.16 499.344 453.551 496.438 450.793 494.215 449.453 490.91 448.422 487.707 443.207 471.527 443.105 454.047 448.008 437.309 462.234 436.336 476.449 435.352 490.676 434.379 475.68 432.559 460.688 430.73 445.684 428.91 434.445 400.34 432.062 369.004 438.891 339.336 439.246 337.816 439.668 336.191 440.93 335.113 442.328 333.914 444.391 333.672 446.312 333.492 463.023 331.887 479.738 330.297 496.461 328.695 477.652 327.199 458.773 326.418 439.898 326.363 438.754 315.871 450.527 293.125 450.988 282.59 472.957 277.875 792.242 269.055 924.801 277.496Z" fill="#82421F"/><path d="M921 281.434C766.262 282.613 611.516 283.789 456.781 284.969 452.91 296.422 449.027 307.875 445.156 319.328 466.734 316.031 489.473 319.133 509.004 328.043 488.34 334.566 466.691 338.582 444.848 339.965 441.812 365.262 441.25 390.789 443.164 416.164 443.359 418.762 443.68 421.566 445.66 423.453 447.746 425.434 451.031 425.82 454.055 426.094 472.809 427.777 491.57 429.469 510.32 431.152 489.887 437.125 468.672 440.969 447.254 442.559 447.746 456.977 449.098 471.355 451.273 485.648 451.664 488.188 452.246 491 454.516 492.547 456.23 493.723 458.523 493.883 460.676 494.012 611.012 502.59 761.637 507.109 912.27 507.535 917.184 507.547 922.453 507.465 926.484 504.938 930.344 502.512 932.281 498.324 933.852 494.32 940.047 478.566 943.871 462.043 945.168 445.363 917.93 449.871 889.062 445.98 864.496 434.48 889.719 434.895 915.008 431.359 938.902 424.082 935.512 397.059 936.188 369.621 940.918 342.758 923.359 344.246 905.477 342.621 888.594 338.02 904.664 337.562 920.586 333.535 934.559 326.375 932.672 309.797 927.184 293.562 920.988 281.41Z" fill="#92502C"/><path d="M919.66 305.355C878.125 295.598 834.348 300.105 791.578 303.434 712.75 309.566 633.52 311.453 554.441 309.062 544.211 308.754 533.363 308.504 524.488 313.078 515.609 317.656 510.238 329.004 516.367 336.387 494.133 338.168 471.855 339.461 449.566 340.242 447.426 362.984 449.258 386.016 454.949 408.258 456.094 412.711 457.551 417.391 461.262 420.512 465.34 423.945 471.25 424.781 476.77 425.465 510.664 429.621 544.602 433.52 578.562 437.184 544.809 444.254 509.871 446.77 475.293 444.605 506.973 449.273 539.297 448.359 571.395 447.434 652.098 445.098 732.816 442.777 813.523 440.441 819.949 440.258 826.648 440.008 832.25 437.184 838.473 434.047 842.879 427.949 849.809 426.484 853.98 425.602 858.309 426.574 862.5 427.344 885.57 431.555 910.059 429.207 931.629 420.719 934.066 400.113 936.508 379.508 938.945 358.902 939.27 356.203 939.473 353.145 937.469 351.121 935.832 349.449 933.176 348.992 930.734 348.629 912.637 345.949 894.539 343.262 876.43 340.582 896.453 335.594 916.484 330.598 936.508 325.609 930.082 321.227 925.258 314.957 919.668 305.367Z" fill="#A75A2E"/><path d="M880.727 315.266C824.336 323.844 763.789 303.344 710.457 321.945 695.395 327.199 681.582 335.426 665.879 338.844 649.27 342.461 631.895 340.422 614.805 340.059 569.801 339.074 524.566 350.137 486.312 371.477 482.922 373.363 479.383 375.559 478.031 378.922 475.82 384.402 480.332 390.191 485.27 393.98 501.707 406.59 524.387 409.871 545.895 411.715 575.746 414.266 605.895 414.984 635.273 420.375 666.109 426.039 695.738 436.793 726.953 440.43 758.164 444.07 793.055 439.148 814.406 418.352 819.309 413.578 823.43 408.031 829.363 404.324 854.336 388.684 893.117 413.738 917.77 397.676 922.672 394.484 926.52 389.461 926.359 384.016 926.074 373.992 913.727 368.375 903.254 364.953 883.555 358.523 863.863 352.094 844.164 345.664 846.27 335.973 860.805 334.531 871.758 335.105 882.707 335.664 897.402 333.18 880.727 315.266Z" fill="#B1673C"/><path d="M920.414 464.551C879.844 457.434 839.273 450.316 798.715 443.199 791.496 441.93 784.133 440.66 776.836 441.496 768.496 442.445 760.879 446.07 752.918 448.484 732.75 454.594 710.848 452.832 689.613 451.586 619.992 447.523 550.133 449.859 480.422 452.191 470.883 452.512 459.531 453.816 455.258 461.508 451.25 468.691 456.426 477.809 464.102 481.906 471.789 486 481.133 486.402 490.066 486.688 511.145 487.363 532.219 488.039 553.297 488.703 620.395 490.84 687.492 492.98 754.582 495.121 799.16 496.539 843.738 497.969 888.32 499.387 900.402 499.777 913.301 499.973 923.574 494.25 933.852 488.52 941.812 468.301 920.414 464.551Z" fill="#A75A2E"/><path d="M831.828 288.059C764.316 278.492 695.98 309.234 628.262 300.918 605.125 298.078 581.734 290.711 558.977 295.414 542.219 298.871 527.41 308.676 510.32 310.367 498.328 311.559 486.355 308.629 474.32 307.895 462.281 307.176 448.766 309.348 441.516 318.023 447.023 306.09 453.551 294.523 461.008 283.48 462.59 281.148 464.32 278.746 466.977 277.43 469.863 276.012 473.332 276.113 476.621 276.238 626.043 282.098 776.551 266.754 924.906 283.871 909.371 294.488 888.195 296.043 831.828 288.059Z" fill="#A75A2E"/><path d="M897 469.125C834.656 452.227 767.168 450.98 704.102 465.578 702.086 466.047 699.773 466.758 699.086 468.531 698.055 471.172 701.375 473.426 704.227 474.551 746.871 491.309 796.055 480.625 842.387 484.547 857.254 485.809 871.996 488.609 886.934 488.715 895.203 488.77 904.082 487.773 910.312 482.891 916.543 477.992 918.34 468.074 897 469.125Z" fill="#B1673C"/><path d="M929.762 356.453C883.465 352.379 836.328 356.203 791.59 367.676 757.34 376.453 722.199 389.816 687.379 383.066 670.336 379.758 654.871 371.82 638.297 366.969 578.141 349.336 510.262 373.695 450.059 356.211 444.883 359.176 452.66 365.387 458.766 365.984 518.281 371.84 579.984 357.836 637.609 372.449 658.445 377.734 678.262 386.68 699.738 389.105 731.637 392.723 762.977 381.656 794.074 374.301 840.75 363.25 889.797 360.379 937.664 365.867 938.422 361.543 939.176 357.289 929.762 356.465Z" fill="#C97C50"/><path d="M919.875 389.141C875.695 379.402 829.867 392.402 784.969 398.91 753.184 403.512 720.812 404.848 688.695 402.883 688.465 407.07 694.527 408.809 699.188 409.094 777.957 413.832 857.094 387.961 919.887 389.141Z" fill="#C97C50"/><path d="M926.68 480.797C865.961 473.977 804.875 467.148 743.758 469.711 709.234 471.152 674.961 475.578 640.496 477.879 577.121 482.113 512.977 479.09 450.941 466.723 484.73 473.668 518.945 478.965 553.375 482.613 586.82 486.16 620.691 488.117 654.16 484.707 677.562 482.316 700.621 477.316 724.113 475.863 744.293 474.617 764.559 475.992 784.727 477.375 829.055 480.406 873.383 483.438 917.723 486.469 924.766 486.953 932.738 487.156 926.68 480.797Z" fill="#C97C50"/><path d="M451.652 383.328C514.867 416.598 595.789 400.902 665.961 419.793 693.793 427.285 720.082 440.27 748.969 443.086 722.141 434.332 695.305 425.582 668.48 416.828 654.035 412.113 639.535 407.391 624.496 404.574 577.613 395.789 526.082 405.547 483.137 386.473 471.684 381.383 458.078 374.312 451.652 383.34Z" fill="#C97C50"/><path d="M463.324 282.555C485.246 291.398 510.203 291.949 534.133 289.957 558.059 287.977 581.77 283.617 605.801 283.195 631.082 282.762 657.242 286.605 681.102 279.066 652.375 276.652 623.395 276.719 594.691 279.246 556.836 282.59 518.062 290.152 481.34 281.25 475.852 279.922 470.32 278.207 464.641 278.504 458.957 278.801 453.84 278.711 463.312 282.543Z" fill="#C97C50"/><path d="M925.59 303.688C908.02 301.113 889.957 301.285 872.457 304.191 863.68 305.652 855 307.793 846.086 308.066 838.711 308.297 831.379 307.246 824.098 306.191 798.543 302.496 772.977 298.801 747.422 295.094 748.508 290.805 754.832 289.375 759.492 290.688 764.156 292.016 767.938 295.094 772.414 296.844 780.926 300.172 790.66 298.379 799.926 298.023 816.582 297.395 833.043 301.672 849.719 301.66 864.77 301.66 879.523 298.172 894.438 296.363 909.348 294.543 925.293 294.555 925.59 303.664Z" fill="#C97C50"/><path d="M495.176 333.559C543.641 343.398 595.148 340.766 642.078 326.078 651.629 323.078 661.055 319.59 671.023 318 684.57 315.836 698.477 317.289 712.164 318.594 786.914 325.758 862.18 328.605 937.344 327.117 932.281 334.543 920.645 334.898 910.977 334.395 866.855 332.059 822.723 329.727 778.602 327.391 752.746 326.02 726.895 324.656 701.102 322.645 692.762 321.992 684.355 321.281 676.039 322.188 665.617 323.332 655.777 326.98 645.867 330.094 596.215 345.699 541.543 348.137 490.422 337.039 488.02 336.512 485.109 335.434 485.004 333.203 484.902 330.973 489.758 332.461 495.188 333.559Z" fill="#C97C50"/><path d="M800.109 349.371C776.742 356.945 753.16 364.574 728.535 367.527 703.906 370.48 677.836 368.434 656.133 357.551 654.93 356.945 653.668 356.258 653.039 355.148 651.871 353.09 653.336 350.629 654.965 348.844 669.512 332.793 696.383 331.992 719.062 335.586 726.105 336.707 734.512 339.348 735.68 345.711 728.637 344.348 721.582 342.988 714.535 341.625 705.887 339.953 697.059 338.273 688.262 339.141 679.465 340.012 670.551 343.891 666.324 350.883 665.605 352.07 665.043 353.547 665.766 354.738 666.312 355.629 667.438 356.086 668.492 356.465 691.902 364.875 718.258 366.52 742.738 361.098 756.629 358.02 769.805 352.781 783.559 349.223 797.305 345.676 812.848 345.242 800.098 349.383Z" fill="#C97C50"/><path d="M661.309 463.602C607.875 463.531 554.453 458.656 502.094 449.07 524.246 457.512 549.195 456.586 573.043 459.379 590.246 461.391 607.117 465.395 624.355 467.148 653.098 470.062 682.625 466.574 709.555 457.078 701.215 455.707 692.625 455.637 661.32 463.602Z" fill="#C97C50"/><path d="M891.516 514.066C874.023 497.992 860.703 477.445 853.168 454.938 866.352 461.027 874.207 474.516 881.242 487.215 885.695 495.258 890.152 503.301 894.598 511.344 889.844 491.414 885.078 471.484 880.324 451.551 876.211 434.309 872.031 416.898 864.023 401.086 878.48 411.578 885.375 429.527 889.477 446.906 893.75 465.043 895.82 483.691 895.605 502.316 901.355 457.926 885.664 409.793 905.445 369.621 909.852 411.93 908.113 454.883 900.266 496.699 907.023 457.969 915.191 416.508 943.484 389.176 929.109 427.387 916.762 466.355 906.496 505.863 919.164 470.203 933.941 431.852 966.164 411.953 949.016 452.457 931.043 494.184 891.516 514.055Z" fill="#2A5F49"/><path d="M885.605 511.379C868.906 496.242 854.68 478.395 843.648 458.738 850.27 459.734 857.199 458.656 863.199 455.684 856.957 454.504 850.727 453.312 844.484 452.137 842.652 451.793 840.703 451.379 839.375 450.066 837.578 448.281 837.508 445.441 837.566 442.902 837.898 426.141 838.242 409.391 838.574 392.629 841.023 398.66 847.105 403.031 853.602 403.441 848.906 398.328 843.465 393.91 837.496 390.352 846.766 372.461 852.043 352.516 852.855 332.379 856.316 341.5 858.32 351.168 858.777 360.914 859.293 351.234 857.77 341.441 854.324 332.379 873.395 348.227 867.781 380.949 884.906 398.875 879.523 402.562 874.129 406.234 868.746 409.918 875.055 409.082 881.113 406.418 886.008 402.332 890.84 420.5 894.793 438.887 897.871 457.434 892.57 458.68 887.266 459.914 881.961 461.164 887.129 459.984 892.156 458.164 896.875 455.773 899.887 477.754 899.773 500.156 896.566 522.098 892.879 518.562 889.395 514.809 885.605 511.379Z" fill="#417E65"/><path d="M857.875 361.145C862.434 395.547 868.949 429.699 877.379 463.371 880.508 475.852 883.898 488.301 888.559 500.305 875.914 492.238 873.488 475.258 870.602 460.555 867.277 443.637 861.793 427.195 858.688 410.227 855.582 393.258 855.012 375.285 857.875 361.145Z" fill="#558F78"/><path d="M899.418 515.75C894.16 508.199 885.902 502.785 876.867 501 879.742 496.883 885.297 494.844 890.152 496.117 895.008 497.387 898.859 501.871 899.352 506.871 900.875 503.359 902.398 499.855 903.922 496.344 889.992 487.488 880.473 472.043 878.824 455.637 884.438 457.695 891.586 454.629 896.234 458.395 897.793 459.652 898.754 461.484 899.672 463.27 904.035 471.746 908.387 480.211 912.75 488.691 914.32 484.457 915.879 480.223 917.449 476.004 917.758 475.18 918.066 474.297 917.895 473.426 917.688 472.34 916.785 471.551 915.969 470.797 907.906 463.324 904.344 451.348 907.012 440.695 909.691 445.625 915.926 447.363 919.785 451.426 925.945 457.914 924.605 468.234 922.855 477.008 924.777 470.875 927.688 465.062 931.434 459.836 925.559 449.254 927.344 434.961 935.648 426.141 942.887 438.336 941.297 455.109 931.914 465.727 940.297 454.094 954.938 447.238 969.266 448.27 964.844 452.652 960.434 457.043 956.016 461.426 953.656 463.77 951.113 466.219 947.859 466.953 945.477 467.488 942.98 467.031 940.539 467.203 934.848 467.617 929.637 471.859 928.078 477.34 940.469 466.539 960.824 466.379 973.391 476.973 961.281 485.039 946.84 493.461 933.035 488.84 930.918 488.129 928.82 487.113 926.598 487.191 921.848 487.352 918.801 492.156 916.621 496.391 928.121 491.059 942.496 492.547 952.668 500.121 948.559 505.441 941.512 508.348 934.848 507.488 929.602 506.812 924.789 504.031 919.531 503.508 914.273 502.98 907.859 506.242 908.125 511.516 919.477 507.02 932.809 507.855 943.508 513.711 933.094 525.965 908.938 529.422 899.43 515.762Z" fill="#5C903F"/><path d="M864.496 522.75C856.57 503.906 842.16 487.867 824.27 477.938 840.648 483.703 854.562 496.117 862.137 511.723 854.254 491.129 840.637 472.777 823.203 459.262 843.352 463.828 855.883 483.383 866.215 501.254 860.348 481.289 850.027 462.637 836.203 447.078 855.902 458.578 865.73 481.195 874.301 502.316 868.594 479.309 869.09 454.789 875.707 432.035 876.363 453.348 878.664 474.617 882.559 495.578 882.453 474.871 888.055 454.16 898.605 436.336 895.742 456.152 893.336 476.023 891.402 495.945 893.301 476.941 905.043 460.555 916.371 445.18 907.734 462.66 903.703 481.984 899.762 501.082 906.809 482.648 918.203 465.887 932.762 452.559 923.016 467.168 915.238 483.074 909.691 499.73 916.473 487.992 926.977 478.426 939.312 472.777 929.75 482.969 920.676 493.609 912.145 504.672 918.961 498.223 927.195 493.266 936.094 490.281 926.246 501.035 916.945 512.305 908.25 524.008 895.191 523.367 882.145 522.727 864.527 522.738Z" fill="#7EA660"/><g clip-path="url(#173cf47954)"><path d="M875.535 515.395C868.035 512.602 860.52 509.812 853.02 507.02 849.742 505.793 846.227 504.559 842.812 505.336 840.602 505.84 838.676 507.133 836.809 508.402 830.672 512.578 824.52 516.754 818.379 520.93 815.379 522.969 811.977 525.977 812.895 529.488 813.352 531.238 814.797 532.523 816.18 533.699 821.449 538.184 827.188 542.863 834.074 543.551 837.852 543.93 841.633 543.047 845.367 542.395 852 541.227 858.746 540.758 865.48 541 870.312 541.172 875.344 541.676 879.832 539.879 884.32 538.082 887.988 533.035 886.316 528.504 884.93 524.742 880.426 522.512 875.559 515.395Z" fill="#2E4020"/></g><path d="M882.844 518.93C886.672 514.82 891.07 510.43 896.668 510.074 901.895 509.742 906.578 513.027 910.77 516.148 913.395 518.105 916.016 520.062 918.629 522.02 919.703 522.82 920.816 523.656 921.457 524.832 923.199 527.992 920.574 532.168 917.125 533.242 913.68 534.316 909.945 533.172 906.637 531.73 904.527 530.816 902.305 529.742 900.039 530.098 898.57 530.324 897.242 531.137 895.777 531.422 892.73 532.02 889.625 530.129 887.852 527.578 886.074 525.027 885.352 521.914 882.855 518.93Z" fill="#2E4020"/><path d="M867.758 514.594C861.551 511.723 855.148 509.25 848.629 507.18 847.105 506.699 845.48 506.23 843.934 506.641 842.582 506.996 841.484 507.969 840.406 508.871 835.379 513.082 829.57 516.367 823.363 518.496 821.426 519.156 819.398 519.742 817.797 521.012 816.191 522.281 815.129 524.488 815.848 526.402 816.32 527.637 817.418 528.504 818.496 529.273 825.184 533.965 833.156 536.812 841.312 537.43 842.309 537.512 843.352 537.531 844.242 537.086 845.332 536.539 845.973 535.383 846.969 534.672 849.375 532.957 852.812 534.375 855.617 533.461 857.59 532.809 859.121 531.035 861.184 530.727 862.879 530.473 864.527 531.285 866.02 532.133 870.301 534.582 874.84 537.68 879.707 536.891 881.984 536.527 884.414 534.605 883.852 532.363 883.656 531.57 883.121 530.918 882.625 530.27 880.016 526.766 879.867 520.176 867.77 514.594Z" fill="#394D2A"/><path d="M915.488 527.809 901.789 523.344C900.371 522.887 898.73 522.453 897.484 523.266 896.75 523.746 896.246 524.617 895.398 524.82 894.664 525.004 893.922 524.629 893.258 524.273 891.504 523.324 889.719 522.328 888.422 520.816 887.129 519.309 886.43 517.109 887.195 515.281 887.977 513.426 890.051 512.387 892.055 512.258 894.059 512.133 896.027 512.738 897.953 513.336 906.039 515.863 914.629 518.746 915.477 527.82Z" fill="#394D2A"/></svg>